<svg width="280" height="60" viewBox="0 0 280 60" fill="none" xmlns="http://www.w3.org/2000/svg">
  <!-- Button Background with Shadow -->
  <g filter="url(#filter0_d)">
    <rect x="4" y="0" width="272" height="52" rx="26" fill="#25D366"/>
    <rect x="4.5" y="0.5" width="271" height="51" rx="25.5" stroke="white" stroke-opacity="0.2"/>
  </g>
  
  <!-- WhatsApp Logo Icon -->
  <path d="M48.5 15C42.7 15 38 19.7 38 25.5C38 27.8 38.7 29.9 40 31.7L39 38L45.5 35.9C47.1 36.8 49 37.1 51 36.6C55.8 35.4 59 30.7 57.8 25.8C56.9 22 53.6 19 49.8 18.2C49.4 18.1 49 18.1 48.5 18.1V15ZM48.5 18.1C52.6 18.1 56 21.4 56 25.5C56 29.6 52.6 32.9 48.5 32.9C47 32.9 45.6 32.5 44.4 31.7L44 31.5L41.3 32.4L42.2 29.7L41.9 29.2C41 28.2 40.5 26.9 40.5 25.5C40.5 21.4 43.8 18.1 48.5 18.1Z" fill="white"/>
  <path d="M52.3 29.4C52.1 29.3 51.2 28.8 51 28.7C50.8 28.6 50.7 28.6 50.5 28.8C50.4 29 50 29.5 49.9 29.6C49.7 29.8 49.6 29.8 49.4 29.7C49.2 29.6 48.5 29.4 47.7 28.7C47 28.1 46.6 27.3 46.4 27C46.3 26.8 46.4 26.6 46.5 26.5C46.6 26.4 46.7 26.3 46.8 26.2C46.9 26.1 46.9 26 47 25.9C47.1 25.8 47.1 25.7 47.2 25.5C47.2 25.4 47.2 25.3 47.1 25.2C47.1 25.1 46.7 24.1 46.5 23.7C46.4 23.3 46.2 23.3 46.1 23.3H45.6C45.5 23.3 45.3 23.4 45.1 23.6C44.9 23.8 44.4 24.3 44.4 25.3C44.4 26.3 45.1 27.3 45.2 27.4C45.3 27.6 46.6 29.6 48.6 30.5C50.6 31.4 50.6 31.1 51 31.1C51.4 31 52.3 30.6 52.5 29.9C52.7 29.3 52.7 28.8 52.6 28.7C52.6 28.6 52.4 28.5 52.3 29.4Z" fill="white"/>

  <!-- Text -->
  <text x="70" y="32" fill="white" font-family="'Segoe UI', Roboto, Helvetica, Arial, sans-serif" font-size="16" font-weight="bold" letter-spacing="0.5">Talk to Us Before You Order</text>
  
  <defs>
    <filter id="filter0_d" x="0" y="0" width="280" height="60" filterUnits="userSpaceOnUse" color-interpolation-filters="sRGB">
      <feFlood flood-opacity="0" result="BackgroundImageFix"/>
      <feColorMatrix in="SourceAlpha" type="matrix" values="0 0 0 0 0 0 0 0 0 0 0 0 0 0 0 0 0 0 127 0" result="hardAlpha"/>
      <feOffset dy="4"/>
      <feGaussianBlur stdDeviation="2"/>
      <feComposite in2="hardAlpha" operator="out"/>
      <feColorMatrix type="matrix" values="0 0 0 0 0 0 0 0 0 0 0 0 0 0 0 0 0 0 0.15 0"/>
      <feBlend mode="normal" in2="BackgroundImageFix" result="effect1_dropShadow"/>
      <feBlend mode="normal" in="SourceGraphic" in2="effect1_dropShadow" result="shape"/>
    </filter>
  </defs>
</svg>
